<svg xmlns="http://www.w3.org/2000/svg" xmlns:xlink="http://www.w3.org/1999/xlink" fill="none" version="1.1" width="201" height="71" viewBox="0 0 201 71"><defs><linearGradient x1="0" y1="0" x2="1" y2="1" id="master_svg0_2_1172"><stop offset="0%" stop-color="#F16436" stop-opacity="1"/><stop offset="97.85714149475098%" stop-color="#FFFFFF" stop-opacity="0"/></linearGradient><clipPath id="master_svg1_2_12"><rect x="14.500030517578125" y="10.5" width="50" height="50" rx="0"/></clipPath></defs><g><g><rect x="0.5" y="0.5" width="200" height="70" rx="10" fill="#F16436" fill-opacity="1"/><rect x="0.5" y="0.5" width="200" height="70" rx="10" stroke="url(#master_svg0_2_1172)" fill-opacity="0" fill="none" stroke-width="1"/></g><g><path d="M82.5,33L82.5,20.5L85,20.5L85,33L82.5,33ZM72.5,35.5L72.5,18L82.5,18L82.5,20.5L75,20.5L75,33L82.5,33L82.5,35.5L72.5,35.5ZM90.625,35.5L90.625,33L98.125,33L98.125,35.5L90.625,35.5ZM88.125,33L88.125,25.5L90.625,25.5L90.625,33L88.125,33ZM98.125,33L98.125,25.5L100.625,25.5L100.625,33L98.125,33ZM90.625,25.5L90.625,23L98.125,23L98.125,25.5L90.625,25.5ZM103.75,33L103.75,23L106.25,23L106.25,33L103.75,33ZM106.25,35.5L106.25,33L108.75,33L108.75,28L111.25,28L111.25,33L113.75,33L113.75,23L116.25,23L116.25,35.5L106.25,35.5ZM129.375,35.5L129.375,25.5L131.875,25.5L131.875,35.5L129.375,35.5ZM119.375,35.5L119.375,23L129.375,23L129.375,25.5L121.875,25.5L121.875,35.5L119.375,35.5ZM137.5,35.5L137.5,33L140,33L140,35.5L137.5,35.5ZM135,33L135,18L137.5,18L137.5,33L135,33ZM145.625,35.5L145.625,33L153.125,33L153.125,35.5L145.625,35.5ZM143.125,33L143.125,25.5L145.625,25.5L145.625,33L143.125,33ZM153.125,33L153.125,25.5L155.625,25.5L155.625,33L153.125,33ZM145.625,25.5L145.625,23L153.125,23L153.125,25.5L145.625,25.5ZM158.75,33L158.75,30.5L161.25,30.5L161.25,33L158.75,33ZM161.25,35.5L161.25,33L168.75,33L168.75,30.5L161.25,30.5L161.25,28L168.75,28L168.75,25.5L171.25,25.5L171.25,35.5L161.25,35.5ZM161.25,25.5L161.25,23L168.75,23L168.75,25.5L161.25,25.5ZM174.375,33L174.375,25.5L176.875,25.5L176.875,33L174.375,33ZM176.875,25.5L176.875,23L181.875,23L181.875,25.5L176.875,25.5ZM176.875,35.5L176.875,33L184.375,33L184.375,28L181.875,28L181.875,25.5L184.375,25.5L184.375,18L186.875,18L186.875,35.5L176.875,35.5ZM73.875,51.5L73.875,46L72.5,46L72.5,44.625L73.875,44.625L73.875,43.25L75.25,43.25L75.25,44.625L78,44.625L78,46L75.25,46L75.25,51.5L73.875,51.5ZM75.25,43.25L75.25,41.875L78,41.875L78,43.25L75.25,43.25ZM85.2188,47.375L85.2188,46L86.5938,46L86.5938,47.375L85.2188,47.375ZM79.71875,51.5L79.71875,44.625L81.09375,44.625L81.09375,46L82.46875,46L82.46875,47.375L81.09375,47.375L81.09375,51.5L79.71875,51.5ZM82.46875,46L82.46875,44.625L85.2188,44.625L85.2188,46L82.46875,46ZM89.6875,51.5L89.6875,50.125L93.8125,50.125L93.8125,51.5L89.6875,51.5ZM88.3125,50.125L88.3125,46L89.6875,46L89.6875,50.125L88.3125,50.125ZM93.8125,50.125L93.8125,46L95.1875,46L95.1875,50.125L93.8125,50.125ZM89.6875,46L89.6875,44.625L93.8125,44.625L93.8125,46L89.6875,46ZM99.6562,48.75L99.6562,46L101.0312,46L101.0312,48.75L99.6562,48.75ZM102.4062,51.5L102.4062,46L103.7812,46L103.7812,51.5L102.4062,51.5ZM96.9062,51.5L96.9062,44.625L99.6562,44.625L99.6562,46L98.2812,46L98.2812,51.5L96.9062,51.5ZM101.0312,46L101.0312,44.625L102.4062,44.625L102.4062,46L101.0312,46ZM110.3125,51.5L110.3125,50.125L114.4375,50.125L114.4375,51.5L110.3125,51.5ZM114.4375,50.125L114.4375,48.75L115.8125,48.75L115.8125,50.125L114.4375,50.125ZM108.9375,50.125L108.9375,43.25L110.3125,43.25L110.3125,50.125L108.9375,50.125ZM114.4375,44.625L114.4375,43.25L115.8125,43.25L115.8125,44.625L114.4375,44.625ZM110.3125,43.25L110.3125,41.875L114.4375,41.875L114.4375,43.25L110.3125,43.25ZM117.5312,50.125L117.5312,44.625L118.9062,44.625L118.9062,50.125L117.5312,50.125ZM118.9062,51.5L118.9062,50.125L123.0312,50.125L123.0312,44.625L124.4062,44.625L124.4062,51.5L118.9062,51.5ZM131.625,47.375L131.625,46L133,46L133,47.375L131.625,47.375ZM126.125,51.5L126.125,44.625L127.5,44.625L127.5,46L128.875,46L128.875,47.375L127.5,47.375L127.5,51.5L126.125,51.5ZM128.875,46L128.875,44.625L131.625,44.625L131.625,46L128.875,46ZM134.7188,51.5L134.7188,50.125L140.2188,50.125L140.2188,51.5L134.7188,51.5ZM140.2188,50.125L140.2188,48.75L141.5938,48.75L141.5938,50.125L140.2188,50.125ZM136.0938,48.75L136.0938,47.375L140.2188,47.375L140.2188,48.75L136.0938,48.75ZM134.7188,47.375L134.7188,46L136.0938,46L136.0938,47.375L134.7188,47.375ZM136.0938,46L136.0938,44.625L141.5938,44.625L141.5938,46L136.0938,46ZM144.6875,51.5L144.6875,50.125L150.1875,50.125L150.1875,51.5L144.6875,51.5ZM143.3125,50.125L143.3125,46L144.6875,46L144.6875,47.375L148.8125,47.375L148.8125,46L150.1875,46L150.1875,48.75L144.6875,48.75L144.6875,50.125L143.3125,50.125ZM144.6875,46L144.6875,44.625L148.8125,44.625L148.8125,46L144.6875,46ZM153.2812,51.5L153.2812,46L151.9062,46L151.9062,44.625L153.2812,44.625L153.2812,43.25L154.6562,43.25L154.6562,44.625L157.4062,44.625L157.4062,46L154.6562,46L154.6562,51.5L153.2812,51.5ZM154.6562,43.25L154.6562,41.875L157.4062,41.875L157.4062,43.25L154.6562,43.25ZM160.5,51.5L160.5,50.125L164.625,50.125L164.625,51.5L160.5,51.5ZM159.125,50.125L159.125,46L160.5,46L160.5,50.125L159.125,50.125ZM164.625,50.125L164.625,46L166,46L166,50.125L164.625,50.125ZM160.5,46L160.5,44.625L164.625,44.625L164.625,46L160.5,46ZM173.219,47.375L173.219,46L174.594,46L174.594,47.375L173.219,47.375ZM167.7188,51.5L167.7188,44.625L169.0938,44.625L169.0938,46L170.4688,46L170.4688,47.375L169.0938,47.375L169.0938,51.5L167.7188,51.5ZM170.4688,46L170.4688,44.625L173.219,44.625L173.219,46L170.4688,46ZM176.312,52.875L176.312,51.5L181.812,51.5L181.812,52.875L176.312,52.875ZM176.312,48.75L176.312,46L177.688,46L177.688,48.75L176.312,48.75ZM181.812,51.5L181.812,50.125L177.688,50.125L177.688,48.75L181.812,48.75L181.812,46L177.688,46L177.688,44.625L183.188,44.625L183.188,51.5L181.812,51.5ZM186.281,51.5L186.281,50.125L191.781,50.125L191.781,51.5L186.281,51.5ZM184.906,50.125L184.906,46L186.281,46L186.281,47.375L190.406,47.375L190.406,46L191.781,46L191.781,48.75L186.281,48.75L186.281,50.125L184.906,50.125ZM186.281,46L186.281,44.625L190.406,44.625L190.406,46L186.281,46Z" fill="#FFFFFF" fill-opacity="1"/></g><g clip-path="url(#master_svg1_2_12)"><g><path d="M52.67923051757813,29.695856494140624Q62.88753051757813,28.087486494140627,64.50003051757812,23.391656494140626L48.86043051757812,23.391656494140626L48.86043051757812,19.666656494140625L14.500030517578125,19.666656494140625L18.733360517578124,24.579156494140626L18.733360517578124,29.610406494140626Q29.414630517578125,29.054156494140624,33.545830517578125,32.187456494140626Q39.20003051757813,37.42915649414063,27.185430517578126,44.51455649414062L25.122930517578126,51.333356494140624C28.345830517578126,48.26455649414062,34.48543051757812,44.297856494140625,45.74583051757813,44.48745649414062C41.460430517578125,45.84165649414062,37.15213051757813,47.956256494140625,33.79793051757812,51.333356494140624L56.55833051757813,51.333356494140624L54.414630517578125,44.51455649414062Q37.91883051757813,34.789556494140626,52.67923051757813,29.697956494140627L52.67923051757813,29.695856494140624Z" fill="#FFFFFF" fill-opacity="1" style="mix-blend-mode:passthrough"/></g></g></g></svg>