<svg xmlns="http://www.w3.org/2000/svg" xmlns:xlink="http://www.w3.org/1999/xlink" fill="none" version="1.1" width="201" height="71" viewBox="0 0 201 71"><defs><linearGradient x1="0.5" y1="0" x2="0.5" y2="1" id="master_svg0_2_1164"><stop offset="0%" stop-color="#1BD96A" stop-opacity="1"/><stop offset="98.57142567634583%" stop-color="#FFFFFF" stop-opacity="0"/></linearGradient><clipPath id="master_svg1_2_06"><rect x="14.5" y="10.5" width="50" height="50" rx="0"/></clipPath></defs><g><g><rect x="0.5" y="0.5" width="200" height="70" rx="10" fill="#1BD96A" fill-opacity="1"/><rect x="0.5" y="0.5" width="200" height="70" rx="10" stroke="url(#master_svg0_2_1164)" fill-opacity="0" fill="none" stroke-width="1"/></g><g clip-path="url(#master_svg1_2_06)"><g><path d="M16.916656494140625,45.866668701171875L32.59995649414063,36.454168701171874L31.170856494140626,32.664168701171874L35.649956494140625,28.063338701171876L41.31085649414062,26.843335701171874L42.94995649414062,28.860838701171875L40.33995649414062,31.504168701171874L38.064956494140624,32.22083870117187L36.43835649414062,33.891668701171874L37.234956494140626,36.108338701171874L38.85165649414063,37.824968701171876L41.13165649414063,37.218368701171876L42.754156494140624,35.436668701171875L46.29665649414062,34.31416870117187L47.352456494140625,36.68916870117187L43.696656494140626,41.17086870117188L37.571656494140626,43.10996870117188L34.824156494140624,40.05166870117188L19.088326494140624,49.49496870117187C18.341656494140626,48.53416870117188,17.472489494140625,47.173368701171874,16.916656494140625,45.866668701171875ZM62.16915649414062,26.679168701171875L49.71085649414062,30.039168701171874C50.39745649414063,31.865838701171874,50.62335649414062,32.93916870117187,50.81335649414063,34.12249870117188L63.24915649414063,30.767508701171874C63.050856494140625,29.439168701171873,62.69495649414063,28.086668701171874,62.16915649414062,26.679168701171875Z" fill="#FFFFFF" fill-opacity="1" style="mix-blend-mode:passthrough"/></g><g><path d="M18.77333,36.8442C19.65583,47.2608,28.401699999999998,55.4525,39.0458,55.4525C47.0883,55.4525,54.0475,50.7758,57.3483,43.9975L61.3992,45.4C57.5008,53.845,48.9533,59.7125,39.0458,59.7125C26.05,59.7125,15.3925,49.615,14.5,36.8442L18.77333,36.8442ZM14.565,32.603300000000004C15.82167,20.196669999999997,26.3108,10.5,39.0467,10.5C52.6275,10.5,63.6533,21.5258,63.6533,35.106700000000004C63.6533,37.285,63.37,39.3975,62.8367,41.4092L58.7967,40.0108C59.1936,38.406400000000005,59.3937,36.7595,59.3925,35.106700000000004C59.3925,23.877499999999998,50.2758,14.76083,39.0467,14.76083C28.665,14.76083,20.08917,22.552500000000002,18.85334,32.603300000000004L14.5666666,32.603300000000004L14.565,32.603300000000004Z" fill="#FFFFFF" fill-opacity="1" style="mix-blend-mode:passthrough"/></g><g><path d="M38.9808048828125,23.264166181640626C32.4400048828125,23.269996181640625,27.1308348828125,28.583336181640625,27.1308348828125,35.12583618164062C27.1308348828125,41.67253618164062,32.4466748828125,46.98753618164062,38.993304882812495,46.98753618164062C39.3250048828125,46.98753618164062,39.6542048828125,46.974136181640624,39.979204882812496,46.94663618164063L41.1642048828125,51.09333618164062C40.4446048828125,51.19023618164063,39.7194048828125,51.23863618164062,38.993304882812495,51.238336181640626C30.1000048828125,51.238336181640626,22.8800048828125,44.01833618164062,22.8800048828125,35.12583618164062C22.8800048828125,26.232506181640623,30.1000048828125,19.013336181640625,38.993304882812495,19.013336181640625C39.2133048828125,19.013336181640625,39.4333048828125,19.017502781640626,39.651704882812496,19.026669481640624L38.9808048828125,23.264166181640626ZM43.8308048828125,19.753334181640625C50.3633048828125,21.809166181640624,55.1058048828125,27.918336181640626,55.1058048828125,35.12583618164062C55.1058048828125,41.79833618164062,51.041704882812496,47.528336181640626,45.2558048828125,49.974136181640624L44.0750048828125,45.84503618164062C48.0817048828125,43.94083618164062,50.8550048828125,39.85413618164063,50.8550048828125,35.12583618164062C50.8550048828125,30.043336181640626,47.651704882812496,25.703336181640626,43.155804882812504,24.015836181640626L43.8308048828125,19.753334181640625Z" fill="#FFFFFF" fill-opacity="1" style="mix-blend-mode:passthrough"/></g></g><g><path d="M82.5,33L82.5,20.5L85,20.5L85,33L82.5,33ZM72.5,35.5L72.5,18L82.5,18L82.5,20.5L75,20.5L75,33L82.5,33L82.5,35.5L72.5,35.5ZM90.625,35.5L90.625,33L98.125,33L98.125,35.5L90.625,35.5ZM88.125,33L88.125,25.5L90.625,25.5L90.625,33L88.125,33ZM98.125,33L98.125,25.5L100.625,25.5L100.625,33L98.125,33ZM90.625,25.5L90.625,23L98.125,23L98.125,25.5L90.625,25.5ZM103.75,33L103.75,23L106.25,23L106.25,33L103.75,33ZM106.25,35.5L106.25,33L108.75,33L108.75,28L111.25,28L111.25,33L113.75,33L113.75,23L116.25,23L116.25,35.5L106.25,35.5ZM129.375,35.5L129.375,25.5L131.875,25.5L131.875,35.5L129.375,35.5ZM119.375,35.5L119.375,23L129.375,23L129.375,25.5L121.875,25.5L121.875,35.5L119.375,35.5ZM137.5,35.5L137.5,33L140,33L140,35.5L137.5,35.5ZM135,33L135,18L137.5,18L137.5,33L135,33ZM145.625,35.5L145.625,33L153.125,33L153.125,35.5L145.625,35.5ZM143.125,33L143.125,25.5L145.625,25.5L145.625,33L143.125,33ZM153.125,33L153.125,25.5L155.625,25.5L155.625,33L153.125,33ZM145.625,25.5L145.625,23L153.125,23L153.125,25.5L145.625,25.5ZM158.75,33L158.75,30.5L161.25,30.5L161.25,33L158.75,33ZM161.25,35.5L161.25,33L168.75,33L168.75,30.5L161.25,30.5L161.25,28L168.75,28L168.75,25.5L171.25,25.5L171.25,35.5L161.25,35.5ZM161.25,25.5L161.25,23L168.75,23L168.75,25.5L161.25,25.5ZM174.375,33L174.375,25.5L176.875,25.5L176.875,33L174.375,33ZM176.875,25.5L176.875,23L181.875,23L181.875,25.5L176.875,25.5ZM176.875,35.5L176.875,33L184.375,33L184.375,28L181.875,28L181.875,25.5L184.375,25.5L184.375,18L186.875,18L186.875,35.5L176.875,35.5ZM74,51.5L74,45.5L72.5,45.5L72.5,44L74,44L74,42.5L75.5,42.5L75.5,44L78.5,44L78.5,45.5L75.5,45.5L75.5,51.5L74,51.5ZM75.5,42.5L75.5,41L78.5,41L78.5,42.5L75.5,42.5ZM86.375,47L86.375,45.5L87.875,45.5L87.875,47L86.375,47ZM80.375,51.5L80.375,44L81.875,44L81.875,45.5L83.375,45.5L83.375,47L81.875,47L81.875,51.5L80.375,51.5ZM83.375,45.5L83.375,44L86.375,44L86.375,45.5L83.375,45.5ZM91.25,51.5L91.25,50L95.75,50L95.75,51.5L91.25,51.5ZM89.75,50L89.75,45.5L91.25,45.5L91.25,50L89.75,50ZM95.75,50L95.75,45.5L97.25,45.5L97.25,50L95.75,50ZM91.25,45.5L91.25,44L95.75,44L95.75,45.5L91.25,45.5ZM102.125,48.5L102.125,45.5L103.625,45.5L103.625,48.5L102.125,48.5ZM105.125,51.5L105.125,45.5L106.625,45.5L106.625,51.5L105.125,51.5ZM99.125,51.5L99.125,44L102.125,44L102.125,45.5L100.625,45.5L100.625,51.5L99.125,51.5ZM103.625,45.5L103.625,44L105.125,44L105.125,45.5L103.625,45.5ZM115.25,45.5L115.25,44L116.75,44L116.75,45.5L115.25,45.5ZM112.25,51.5L112.25,41L113.75,41L113.75,42.5L115.25,42.5L115.25,44L113.75,44L113.75,51.5L112.25,51.5ZM118.25,51.5L118.25,44L116.75,44L116.75,42.5L118.25,42.5L118.25,41L119.75,41L119.75,51.5L118.25,51.5ZM123.125,51.5L123.125,50L127.625,50L127.625,51.5L123.125,51.5ZM121.625,50L121.625,45.5L123.125,45.5L123.125,50L121.625,50ZM127.625,50L127.625,45.5L129.125,45.5L129.125,50L127.625,50ZM123.125,45.5L123.125,44L127.625,44L127.625,45.5L123.125,45.5ZM131,50L131,45.5L132.5,45.5L132.5,50L131,50ZM132.5,45.5L132.5,44L135.5,44L135.5,45.5L132.5,45.5ZM132.5,51.5L132.5,50L137,50L137,47L135.5,47L135.5,45.5L137,45.5L137,41L138.5,41L138.5,51.5L132.5,51.5ZM146.375,47L146.375,45.5L147.875,45.5L147.875,47L146.375,47ZM140.375,51.5L140.375,44L141.875,44L141.875,45.5L143.375,45.5L143.375,47L141.875,47L141.875,51.5L140.375,51.5ZM143.375,45.5L143.375,44L146.375,44L146.375,45.5L143.375,45.5ZM149.75,51.5L149.75,44L151.25,44L151.25,51.5L149.75,51.5ZM149.75,42.5L149.75,41L151.25,41L151.25,42.5L149.75,42.5ZM159.125,51.5L159.125,45.5L160.625,45.5L160.625,51.5L159.125,51.5ZM153.125,51.5L153.125,44L159.125,44L159.125,45.5L154.625,45.5L154.625,51.5L153.125,51.5ZM165.5,51.5L165.5,50L167,50L167,51.5L165.5,51.5ZM164,50L164,44L162.5,44L162.5,42.5L164,42.5L164,41L165.5,41L165.5,42.5L167,42.5L167,44L165.5,44L165.5,50L164,50ZM174.875,51.5L174.875,45.5L176.375,45.5L176.375,51.5L174.875,51.5ZM171.875,45.5L171.875,44L174.875,44L174.875,45.5L171.875,45.5ZM168.875,51.5L168.875,41L170.375,41L170.375,45.5L171.875,45.5L171.875,47L170.375,47L170.375,51.5L168.875,51.5Z" fill="#FFFFFF" fill-opacity="1"/></g></g></svg>