<?xml version="1.0" encoding="UTF-8"?>
<svg version="1.1" xmlns="http://www.w3.org/2000/svg" width="500" height="500">
<path d="M0 0 C1.50880737 0.66588135 1.50880737 0.66588135 3.0480957 1.34521484 C4.66784302 2.09279053 4.66784302 2.09279053 6.3203125 2.85546875 C8.11836429 3.65878726 9.91646779 4.46199344 11.7157135 5.26263428 C13.04010825 5.85295641 14.36343086 6.44568867 15.68577576 7.04058838 C21.69221766 9.73606443 27.74954968 12.30331716 33.81640625 14.859375 C36.80487727 16.12487102 39.79281525 17.39161718 42.78057861 18.65878296 C44.75505875 19.49386593 46.7310829 20.32530819 48.7086792 21.15298462 C51.51809261 22.33084575 54.32008626 23.52496761 57.12109375 24.72265625 C57.95861679 25.06925797 58.79613983 25.41585968 59.65904236 25.77296448 C66.49443573 28.72498446 71.89235245 31.70583559 75.11410522 38.62901306 C76.7741743 43.39292161 76.87488911 47.89073463 76.84936523 52.89624023 C76.85622849 53.8485553 76.86309174 54.80087036 76.87016296 55.78204346 C76.8883663 58.90953762 76.88460269 62.03652706 76.87890625 65.1640625 C76.88347107 67.35067405 76.88877753 69.53728417 76.89479065 71.72389221 C76.90370902 76.29914186 76.90131296 80.87421683 76.89135742 85.44946289 C76.87986824 91.29796705 76.90008545 97.14586739 76.92927456 102.99429226 C76.94766435 107.50775449 76.94733854 112.02107275 76.94163704 116.53456306 C76.94148417 118.69022532 76.9474997 120.84589754 76.95992851 123.00152397 C76.97488937 126.02149683 76.96412372 129.04036331 76.94702148 132.06030273 C76.96152344 133.38149864 76.96152344 133.38149864 76.97631836 134.72938538 C76.89598308 141.54081352 75.37490425 147.96837394 70.55615234 153.02563477 C63.98277158 156.94953254 57.12366483 160.0234019 50.0703125 162.98046875 C48.77656735 163.53070754 47.48320024 164.08183594 46.19018555 164.63378906 C43.42501508 165.81281523 40.65779567 166.98684981 37.88916016 168.15771484 C33.18525138 170.14961129 28.49253022 172.1671612 23.80078125 174.1875 C10.80008378 179.78164952 10.80008378 179.78164952 5.33984375 182.12109375 C4.68493454 182.40277908 4.03002533 182.68446442 3.35527039 182.97468567 C-4.75013994 186.44276384 -11.68544049 187.7280204 -20.25708008 184.76171875 C-21.59647182 184.19943173 -22.93117414 183.6258821 -24.26171875 183.04296875 C-24.99285385 182.73218384 -25.72398895 182.42139893 -26.47727966 182.10119629 C-28.84121185 181.09256691 -31.19815621 180.06875719 -33.5546875 179.04296875 C-35.14599925 178.35705148 -36.73747139 177.6715062 -38.32910156 176.98632812 C-43.26565074 174.85489998 -48.19179608 172.70002526 -53.1171875 170.54296875 C-55.61079256 169.45324849 -58.10460971 168.36401496 -60.59848022 167.27490234 C-62.22666981 166.56297714 -63.85430368 165.84977952 -65.48135376 165.13525391 C-69.36321972 163.43110469 -73.25023321 161.74303246 -77.15576172 160.09375 C-77.8821434 159.78417358 -78.60852509 159.47459717 -79.35691833 159.15563965 C-80.70711195 158.5809247 -82.05985296 158.01213861 -83.41566467 157.45080566 C-90.39457539 154.46459666 -93.76518553 151.4647325 -96.7118082 144.57883644 C-98.09970749 140.40323388 -98.10432644 136.42694668 -98.05639648 132.06030273 C-98.06179947 131.10623535 -98.06720245 130.15216797 -98.07276917 129.16918945 C-98.08518994 126.04215662 -98.06881073 122.91605645 -98.05078125 119.7890625 C-98.05093638 117.60148572 -98.05242767 115.41390866 -98.05519104 113.22633362 C-98.05657202 108.65279923 -98.04406616 104.07957959 -98.02124023 99.50610352 C-97.99284003 93.65647518 -97.99560172 87.80736874 -98.00833035 81.95770168 C-98.01529884 77.44427567 -98.00748508 72.93096939 -97.99507332 68.41755867 C-97.99057141 66.26108319 -97.99021095 64.10459481 -97.99413872 61.94811821 C-97.99706282 58.93055925 -97.98048687 55.91370937 -97.95874023 52.89624023 C-97.96324188 52.01341873 -97.96774353 51.13059723 -97.97238159 50.22102356 C-97.88934397 43.25422231 -96.83234688 36.99598767 -91.66796875 31.90234375 C-86.58477391 27.97123393 -80.63890411 25.72896231 -74.7421875 23.29296875 C-73.45232712 22.75153082 -72.16295277 22.20893384 -70.87402344 21.6652832 C-68.7752585 20.78006894 -66.67612933 19.89585803 -64.57498169 19.01631165 C-59.49601868 16.88459529 -54.45059285 14.68450213 -49.41621399 12.44961548 C-45.64946569 10.77798607 -41.87641503 9.12084649 -38.10293579 7.46447754 C-36.24904981 6.64692621 -34.39774001 5.82350603 -32.54916382 4.99401855 C-29.92803986 3.81986022 -27.29757176 2.66949395 -24.6640625 1.5234375 C-23.50614952 0.99471291 -23.50614952 0.99471291 -22.32484436 0.45530701 C-14.92829356 -2.7134853 -7.47639196 -3.39568924 0 0 Z M-78.5546875 62.04296875 C-78.5546875 69.30296875 -78.5546875 76.56296875 -78.5546875 84.04296875 C-83.0096875 82.06296875 -83.0096875 82.06296875 -87.5546875 80.04296875 C-88.2146875 80.04296875 -88.8746875 80.04296875 -89.5546875 80.04296875 C-89.6243951 87.61464681 -89.67760373 95.18629131 -89.71012402 102.75821781 C-89.72573728 106.27471873 -89.74689515 109.79099905 -89.78100586 113.30737305 C-89.82003085 117.3559778 -89.83443251 121.40435314 -89.84765625 125.453125 C-89.86314011 126.70754898 -89.87862396 127.96197296 -89.89457703 129.25440979 C-89.89579181 135.58419856 -89.84075921 140.53778203 -86.5546875 146.04296875 C-83.72724494 148.20121931 -83.72724494 148.20121931 -80.1171875 149.73046875 C-79.43325928 150.05168701 -78.74933105 150.37290527 -78.04467773 150.70385742 C-75.56220803 151.8515627 -73.06220913 152.95107007 -70.5546875 154.04296875 C-69.53503906 154.48801758 -68.51539063 154.93306641 -67.46484375 155.39160156 C-61.6144875 157.93261319 -55.74943191 160.4370841 -49.875 162.921875 C-44.99503586 164.99068285 -40.13843853 167.10125943 -35.296875 169.2578125 C-34.1514624 169.76787842 -33.0060498 170.27794434 -31.82592773 170.8034668 C-29.64379764 171.77843389 -27.46353899 172.75760306 -25.28540039 173.74145508 C-24.31078857 174.17611084 -23.33617676 174.6107666 -22.33203125 175.05859375 C-21.05187134 175.63528809 -21.05187134 175.63528809 -19.74584961 176.22363281 C-17.47624768 177.21809007 -17.47624768 177.21809007 -14.5546875 177.04296875 C-14.5546875 153.61296875 -14.5546875 130.18296875 -14.5546875 106.04296875 C-17.8546875 104.39296875 -21.1546875 102.74296875 -24.5546875 101.04296875 C-25.1796875 95.98046875 -25.1796875 95.98046875 -25.16015625 93.359375 C-25.3260437 90.92117566 -25.3260437 90.92117566 -27.29296875 89.5078125 C-30.06515456 88.13402948 -32.43432653 87.04296875 -35.5546875 87.04296875 C-35.8846875 92.32296875 -36.2146875 97.60296875 -36.5546875 103.04296875 C-41.0096875 101.06296875 -41.0096875 101.06296875 -45.5546875 99.04296875 C-45.51085937 98.30691406 -45.46703125 97.57085937 -45.421875 96.8125 C-45.42574219 95.34876953 -45.42574219 95.34876953 -45.4296875 93.85546875 C-45.40648437 92.89253906 -45.38328125 91.92960937 -45.359375 90.9375 C-46.79909077 86.55407343 -46.79909077 86.55407343 -56.5546875 83.04296875 C-56.5546875 91.29296875 -56.5546875 99.54296875 -56.5546875 108.04296875 C-60.1846875 106.39296875 -63.8146875 104.74296875 -67.5546875 103.04296875 C-68.0496875 84.72796875 -68.0496875 84.72796875 -68.5546875 66.04296875 C-75.36211791 61.89389755 -75.36211791 61.89389755 -78.5546875 62.04296875 Z M47.4453125 66.04296875 C47.1153125 78.25296875 46.7853125 90.46296875 46.4453125 103.04296875 C42.8153125 104.69296875 39.1853125 106.34296875 35.4453125 108.04296875 C35.4453125 99.79296875 35.4453125 91.54296875 35.4453125 83.04296875 C25.68971577 86.55407343 25.68971577 86.55407343 24.25 90.9375 C24.27320313 91.90042969 24.29640625 92.86335938 24.3203125 93.85546875 C24.31773437 94.83128906 24.31515625 95.80710938 24.3125 96.8125 C24.35632813 97.54855469 24.40015625 98.28460938 24.4453125 99.04296875 C21.4753125 100.36296875 18.5053125 101.68296875 15.4453125 103.04296875 C15.1153125 97.76296875 14.7853125 92.48296875 14.4453125 87.04296875 C12.9809375 87.51734375 11.5165625 87.99171875 10.0078125 88.48046875 C9.18410156 88.74730469 8.36039063 89.01414062 7.51171875 89.2890625 C5.48311662 89.86452369 5.48311662 89.86452369 4.4453125 91.04296875 C4.45691406 91.7390625 4.46851563 92.43515625 4.48046875 93.15234375 C4.5078125 95.79296875 4.5078125 95.79296875 3.4453125 101.04296875 C-1.5046875 103.51796875 -1.5046875 103.51796875 -6.5546875 106.04296875 C-6.5546875 129.47296875 -6.5546875 152.90296875 -6.5546875 177.04296875 C-3.06050464 176.34413218 -0.73014993 175.82954315 2.37988281 174.45166016 C3.12047943 174.12649414 3.86107605 173.80132812 4.62411499 173.46630859 C5.41589142 173.11262207 6.20766785 172.75893555 7.0234375 172.39453125 C7.85976715 172.02585937 8.6960968 171.6571875 9.55776978 171.27734375 C12.27253816 170.07924308 14.98405327 168.87398716 17.6953125 167.66796875 C20.48474253 166.43169336 23.27463413 165.19646373 26.06454468 163.96127319 C27.9152849 163.14165067 29.76572933 162.3213599 31.61587524 161.50039673 C36.93167629 159.14413181 42.25998758 156.82186792 47.609375 154.54296875 C48.7653418 154.04716309 49.92130859 153.55135742 51.11230469 153.04052734 C53.19519787 152.14935341 55.2816224 151.26637193 57.37207031 150.39306641 C58.73477051 149.805979 58.73477051 149.805979 60.125 149.20703125 C60.89569824 148.8817041 61.66639648 148.55637695 62.46044922 148.22119141 C65.34843163 146.50687368 66.97813795 144.48051494 68.01899719 141.27767944 C68.54202384 138.53601564 68.56480417 135.96506899 68.55883789 133.17285156 C68.55876236 131.99192932 68.55868683 130.81100708 68.55860901 129.59429932 C68.55344772 128.32439148 68.54828644 127.05448364 68.54296875 125.74609375 C68.5415538 124.44218689 68.54013885 123.13828003 68.53868103 121.79486084 C68.53487117 118.3359382 68.52505401 114.87705784 68.51397705 111.41815186 C68.50372996 107.88554456 68.49917635 104.35293039 68.49414062 100.8203125 C68.48343032 93.89451393 68.46637234 86.96874337 68.4453125 80.04296875 C66.9863699 80.52027713 65.52817754 80.99987917 64.0703125 81.48046875 C62.85214844 81.88072266 62.85214844 81.88072266 61.609375 82.2890625 C59.43499451 82.99476604 59.43499451 82.99476604 57.4453125 84.04296875 C57.4453125 76.78296875 57.4453125 69.52296875 57.4453125 62.04296875 C54.25274291 61.89389755 54.25274291 61.89389755 47.4453125 66.04296875 Z " fill="#D85669" transform="translate(260.5546875,157.95703125)"/>
<path d="M0 0 C14.00567242 13.07863341 25.50515893 27.79056236 35.45898438 44.13354492 C35.80703125 44.70186035 36.15507812 45.27017578 36.51367188 45.85571289 C56.84257006 79.33916596 65.35879337 118.21201953 64.45898438 157.13354492 C64.430625 158.37362305 64.40226562 159.61370117 64.37304688 160.89135742 C62.19605717 211.37678537 39.96195389 257.02011148 5.45898438 293.13354492 C4.78480469 293.86057617 4.110625 294.58760742 3.41601562 295.33666992 C-30.25760517 330.66166231 -81.70283126 350.74942649 -129.88574219 352.2043457 C-177.33735148 353.30421744 -223.56231968 340.0376852 -261.54101562 311.13354492 C-262.38535156 310.5019043 -263.2296875 309.87026367 -264.09960938 309.21948242 C-269.39364567 305.13377296 -274.32318024 300.67153628 -279.22851562 296.13354492 C-279.84654053 295.56410156 -280.46456543 294.9946582 -281.10131836 294.40795898 C-317.5406237 260.25311217 -339.53947315 209.83038015 -341.54101562 160.13354492 C-342.9163328 114.58683398 -331.57571142 69.3709899 -304.54101562 32.13354492 C-303.80625 31.11389648 -303.07148438 30.09424805 -302.31445312 29.04370117 C-283.33742088 3.28241921 -258.99272178 -17.34101077 -230.54101562 -31.86645508 C-229.83090332 -32.23109863 -229.12079102 -32.59574219 -228.38916016 -32.97143555 C-153.89205843 -70.77619036 -61.02783994 -56.09176465 0 0 Z M-285.18701172 22.03173828 C-291.29835665 28.90880485 -296.48733793 36.4612415 -301.54101562 44.13354492 C-301.95480469 44.75986816 -302.36859375 45.38619141 -302.79492188 46.03149414 C-317.31217218 68.31643159 -326.41239105 93.94073243 -330.54101562 120.13354492 C-330.71673096 121.24777832 -330.71673096 121.24777832 -330.89599609 122.38452148 C-338.4008552 172.4986921 -324.87773096 223.92344889 -294.91772461 264.5378418 C-262.77693427 307.17998296 -216.48625051 333.70739872 -163.91992188 341.88745117 C-116.45323892 348.45000907 -65.21153063 336.66932759 -26.54101562 308.13354492 C-25.52652344 307.40135742 -24.51203125 306.66916992 -23.46679688 305.91479492 C18.47087771 275.06028464 45.23205206 229.54575016 53.64648438 178.38354492 C61.11603131 124.84077488 46.45454789 72.50780152 14.40429688 29.36791992 C6.73006479 19.49650105 -1.8409313 10.04142319 -11.54101562 2.13354492 C-12.39308594 1.41682617 -13.24515625 0.70010742 -14.12304688 -0.03833008 C-84.33103616 -58.56135332 -187.82666637 -59.36276167 -285.18701172 22.03173828 Z " fill="#EA5151" transform="translate(388.541015625,100.866455078125)"/>
<path d="M0 0 C0.70822906 0.31633896 1.41645813 0.63267792 2.14614868 0.95860291 C4.40695749 1.97114024 6.6605154 2.99876081 8.9140625 4.02734375 C10.38885503 4.69179468 11.86411237 5.35521497 13.33984375 6.01757812 C16.28555606 7.34069479 19.2288472 8.66900926 22.17089844 10.00024414 C27.08209069 12.21654165 32.01851441 14.37340194 36.95785522 16.52603149 C42.50351497 18.94422797 48.02626238 21.4103154 53.5390625 23.90234375 C54.86164063 24.49885742 54.86164063 24.49885742 56.2109375 25.10742188 C58.3206748 26.05909685 60.43005257 27.01155824 62.5390625 27.96484375 C56.52691052 34.2619523 46.92630551 36.62315533 38.9453125 39.64453125 C31.67089861 42.46420085 24.40037886 45.41997724 17.4765625 49.02734375 C13.00335495 51.3410718 8.29862055 53.03385664 3.5859375 54.79296875 C1.22731467 55.70013138 -1.00565157 56.67465885 -3.2734375 57.77734375 C-9.98377237 60.27727243 -15.58765534 59.00887335 -21.9609375 56.21484375 C-22.61819824 55.93970947 -23.27545898 55.6645752 -23.95263672 55.38110352 C-27.81652571 53.74424402 -31.57230643 51.96082425 -35.28442383 50.00952148 C-37.84809701 48.77901587 -40.45694578 47.79607397 -43.12109375 46.80078125 C-51.43101275 43.63374265 -59.59657068 40.14573015 -67.7734375 36.65234375 C-69.30394847 36.00044442 -70.83454694 35.34875049 -72.36523438 34.69726562 C-76.06481179 33.12214991 -79.76320552 31.54428665 -83.4609375 29.96484375 C-82.4609375 26.96484375 -82.4609375 26.96484375 -80.86962891 25.95336914 C-79.8513501 25.51238892 -79.8513501 25.51238892 -78.8125 25.0625 C-78.05984863 24.73169434 -77.30719727 24.40088867 -76.53173828 24.06005859 C-75.72462402 23.7192627 -74.91750977 23.3784668 -74.0859375 23.02734375 C-73.26464355 22.6710791 -72.44334961 22.31481445 -71.59716797 21.94775391 C-66.47298323 19.74735089 -61.30511299 17.78093665 -56.03515625 15.95703125 C-51.988978 14.39750276 -48.19394637 12.37326593 -44.33984375 10.39453125 C-41.09849561 8.78485226 -37.81637594 7.46349618 -34.4375 6.17578125 C-31.93555554 5.15792983 -29.49710127 4.07536973 -27.046875 2.94140625 C-26.2523291 2.57644043 -25.4577832 2.21147461 -24.63916016 1.83544922 C-23.0486414 1.10143745 -21.46216881 0.35857857 -19.88037109 -0.39404297 C-19.13867676 -0.7345166 -18.39698242 -1.07499023 -17.6328125 -1.42578125 C-16.9737793 -1.73547852 -16.31474609 -2.04517578 -15.63574219 -2.36425781 C-9.80339457 -4.16345979 -5.32095356 -2.45868348 0 0 Z " fill="#F4C2CC" transform="translate(260.4609375,166.03515625)"/>
<path d="M0 0 C0 12.54 0 25.08 0 38 C-9 42 -9 42 -11 42 C-11 34.74 -11 27.48 -11 20 C-13.97 21.32 -16.94 22.64 -20 24 C-19.98316162 25.09465576 -19.96632324 26.18931152 -19.94897461 27.31713867 C-19.89823142 31.38981033 -19.90672664 35.46060303 -19.93286133 39.53344727 C-19.93593821 41.2939094 -19.9230786 43.05447595 -19.89379883 44.81469727 C-19.66650513 59.44827884 -19.66650513 59.44827884 -22.96923828 63.29150391 C-26.42546416 65.27699537 -29.01885613 66 -33 66 C-33.33 58.08 -33.66 50.16 -34 42 C-41.94090442 44.81770248 -41.94090442 44.81770248 -43 48.796875 C-43 49.77140625 -43 50.7459375 -43 51.75 C-43 53.4825 -43 55.215 -43 57 C-48.445 59.475 -48.445 59.475 -54 62 C-54 56.39 -54 50.78 -54 45 C-56.97 46.32 -59.94 47.64 -63 49 C-63.020625 50.5675 -63.04125 52.135 -63.0625 53.75 C-63.5197147 58.49696434 -63.5197147 58.49696434 -65.484375 60.5546875 C-68.81872325 62.50684866 -71.13180704 63 -75 63 C-75 52.77 -75 42.54 -75 32 C-68.79208964 29.26986766 -62.58387133 26.54044537 -56.375 23.8125 C-55.45194061 23.40693878 -54.52888123 23.00137756 -53.57785034 22.58352661 C-39.99069653 16.61531272 -26.39015075 10.67936952 -12.76513672 4.7980957 C-11.62705566 4.30656006 -10.48897461 3.81502441 -9.31640625 3.30859375 C-8.33099854 2.88376709 -7.34559082 2.45894043 -6.33032227 2.02124023 C-1.71814487 0 -1.71814487 0 0 0 Z " fill="#E794AF" transform="translate(329,200)"/>
<path d="M0 0 C6.74972095 1.12495349 6.74972095 1.12495349 9.78515625 2.46777344 C10.81196251 2.91590645 10.81196251 2.91590645 11.85951233 3.37309265 C12.58649826 3.69856583 13.31348419 4.024039 14.0625 4.359375 C14.83939682 4.70051834 15.61629364 5.04166168 16.41673279 5.3931427 C18.9472773 6.5058841 21.47357952 7.62793099 24 8.75 C25.74455045 9.51888016 27.4894264 10.28702217 29.23461914 11.05444336 C32.77357894 12.61108596 36.31125596 14.17059118 39.84814453 15.73193359 C47.36228581 19.04490293 54.89962349 22.30399894 62.4375 25.5625 C68.6559375 28.2540625 68.6559375 28.2540625 75 31 C75 41.56 75 52.12 75 63 C66.29508197 60.09836066 66.29508197 60.09836066 64 58 C63.25569035 54.61229653 63.13607259 51.49252992 63 48 C58.545 46.02 58.545 46.02 54 44 C54 49.61 54 55.22 54 61 C50.37 59.35 46.74 57.7 43 56 C43 53.265625 43 50.53125 43 47.796875 C41.94090442 43.81770248 41.94090442 43.81770248 34 41 C33.67 48.92 33.34 56.84 33 65 C24.44021967 63.28804393 24.44021967 63.28804393 21 60 C20.27299396 56.84209881 20.04053949 54.67566896 20.09765625 51.515625 C20.08536484 50.70003113 20.07307343 49.88443726 20.06040955 49.04412842 C20.02867508 46.44517053 20.04495511 43.84904662 20.0625 41.25 C20.04939119 39.48565071 20.03315142 37.72132171 20.01367188 35.95703125 C19.97281373 31.63741599 19.97500311 27.31971594 20 23 C15.545 21.02 15.545 21.02 11 19 C11 26.26 11 33.52 11 41 C2 38 2 38 0 37 C0 24.79 0 12.58 0 0 Z " fill="#E794AF" transform="translate(171,201)"/>
</svg>
